<svg xmlns="http://www.w3.org/2000/svg" viewBox="0 0 60 30">
  <!-- Red and white stripes -->
  <rect width="60" height="2.31" fill="#b22234"/>
  <rect y="2.31" width="60" height="2.31" fill="#fff"/>
  <rect y="4.62" width="60" height="2.31" fill="#b22234"/>
  <rect y="6.93" width="60" height="2.31" fill="#fff"/>
  <rect y="9.24" width="60" height="2.31" fill="#b22234"/>
  <rect y="11.55" width="60" height="2.31" fill="#fff"/>
  <rect y="13.86" width="60" height="2.31" fill="#b22234"/>
  <rect y="16.17" width="60" height="2.31" fill="#fff"/>
  <rect y="18.48" width="60" height="2.31" fill="#b22234"/>
  <rect y="20.79" width="60" height="2.31" fill="#fff"/>
  <rect y="23.1" width="60" height="2.31" fill="#b22234"/>
  <rect y="25.41" width="60" height="2.31" fill="#fff"/>
  <rect y="27.69" width="60" height="2.31" fill="#b22234"/>
  
  <!-- Blue canton -->
  <rect width="25.2" height="11.55" fill="#3c3b6b"/>
  
  <!-- White stars -->
  <g fill="#fff">
    <circle cx="4.2" cy="2" r="0.8"/>
    <circle cx="10.5" cy="2" r="0.8"/>
    <circle cx="16.8" cy="2" r="0.8"/>
    <circle cx="23.1" cy="2" r="0.8"/>
    <circle cx="7.35" cy="5.5" r="0.8"/>
    <circle cx="13.65" cy="5.5" r="0.8"/>
    <circle cx="19.95" cy="5.5" r="0.8"/>
    <circle cx="4.2" cy="9" r="0.8"/>
    <circle cx="10.5" cy="9" r="0.8"/>
    <circle cx="16.8" cy="9" r="0.8"/>
    <circle cx="23.1" cy="9" r="0.8"/>
  </g>
</svg>